<?xml version="1.0" encoding="UTF-8"?>
<svg id="Layer_2" data-name="Layer 2" xmlns="http://www.w3.org/2000/svg" viewBox="0 0 115.8 151.29">
  <defs>
    <style>
      .cls-1 {
        fill: #b3b3b3;
        stroke: #fff;
        stroke-miterlimit: 10;
        stroke-width: .5px;
      }

      .cls-2 {
        fill: #fff;
      }
    </style>
  </defs>
  <g id="Layer_1-2" data-name="Layer 1">
    <g>
      <circle class="cls-2" cx="57.9" cy="57.9" r="57.9"/>
      <g>
        <path class="cls-1" d="M80.57,56.12c.55-.3,1.02-.7,1.42-1.22.4-.51.71-1.12.95-1.82.23-.7.35-1.44.35-2.24s-.13-1.59-.4-2.29c-.27-.7-.62-1.3-1.07-1.82-.45-.51-.96-.91-1.54-1.19-.58-.28-1.17-.42-1.77-.42h-8.31v11.45h8.61c.63,0,1.22-.15,1.77-.45Z"/>
        <g>
          <path class="cls-1" d="M92.85,100.01c5.78-4.86,10.39-10.57,13.79-17.24,3.4-6.67,5.37-13.74,5.83-21.2.47-7.49-.54-14.8-3.04-21.88-2.49-7.06-6.27-13.35-11.34-18.85C77.61-1.39,43.19-2.7,21.15,17.35,10.14,27.37,3.98,39.93,3.24,54.8c-.91,18.19,5.85,33.29,19.59,45.31-3.53,5.7-7.06,11.39-10.58,17.08-3.53,5.7-7.06,11.4-10.65,17.19.35,0,.53.02.7,0,6.04-.86,12.09-1.7,18.12-2.59.71-.11,1.05.01,1.28.74,1.35,4.19,2.74,8.37,4.13,12.55.6,1.82,1.21,3.64,1.85,5.58.26-.39.44-.65.61-.92,7.56-12.2,15.13-24.39,22.67-36.6.39-.63.78-.83,1.49-.74,3.59.44,7.19.38,10.79,0,.69-.07,1.11.06,1.51.71,5.97,9.68,11.97,19.35,17.96,29.01,1.74,2.81,3.48,5.61,5.32,8.57,2.13-6.43,4.21-12.71,6.3-19.02,6.61.93,13.12,1.85,19.85,2.81-7.2-11.62-14.26-23.03-21.35-34.47ZM58.04,104.51c-25.7,0-46.61-20.91-46.61-46.61S32.34,11.29,58.04,11.29s46.61,20.91,46.61,46.61-20.91,46.61-46.61,46.61Z"/>
          <path class="cls-1" d="M58.04,12.87c-24.83,0-45.03,20.2-45.03,45.03s20.2,45.03,45.03,45.03,45.03-20.2,45.03-45.03S82.87,12.87,58.04,12.87ZM56.69,74.44h-5.68v-3.98c-2.82,2.82-6.11,4.23-9.86,4.23-2.32,0-4.51-.46-6.55-1.39-2.04-.93-3.82-2.21-5.33-3.83-1.51-1.63-2.71-3.54-3.59-5.75-.88-2.21-1.32-4.59-1.32-7.14,0-2.42.44-4.7,1.32-6.85.88-2.14,2.09-4.02,3.64-5.63,1.54-1.61,3.36-2.89,5.45-3.83,2.09-.95,4.36-1.42,6.82-1.42,3.32,0,6.16.7,8.54,2.09,2.37,1.39,4.16,3.27,5.35,5.63l-5.13,3.78c-.9-1.76-2.15-3.1-3.76-4.03-1.61-.93-3.36-1.39-5.25-1.39-1.49,0-2.86.32-4.11.95-1.25.63-2.31,1.49-3.19,2.59-.88,1.09-1.56,2.36-2.04,3.78-.48,1.43-.72,2.94-.72,4.53s.27,3.21.8,4.66c.53,1.44,1.26,2.7,2.19,3.76.93,1.06,2.03,1.9,3.31,2.51,1.28.61,2.66.92,4.16.92,3.42,0,6.5-1.61,9.26-4.83v-2.49h-7.12v-5.03h12.79v18.17ZM84.18,74.44l-7.22-11.85h-6.77v11.85h-6.87v-35.35h15.63c1.63,0,3.13.34,4.51,1.02,1.38.68,2.56,1.58,3.56,2.69,1,1.11,1.77,2.37,2.34,3.78.56,1.41.85,2.83.85,4.26,0,2.29-.57,4.37-1.72,6.25-1.15,1.88-2.7,3.23-4.65,4.06l8.07,13.29h-7.72Z"/>
        </g>
      </g>
    </g>
  </g>
</svg>