<?xml version="1.0" encoding="UTF-8"?>
<!DOCTYPE svg PUBLIC "-//W3C//DTD SVG 1.1//EN" "http://www.w3.org/Graphics/SVG/1.1/DTD/svg11.dtd">
<svg xmlns="http://www.w3.org/2000/svg" version="1.1" width="128px" height="128px" style="shape-rendering:geometricPrecision; text-rendering:geometricPrecision; image-rendering:optimizeQuality; fill-rule:evenodd; clip-rule:evenodd" xmlns:xlink="http://www.w3.org/1999/xlink">
<g><path style="opacity:0.251" fill="#fefffe" d="M 54.5,-0.5 C 60.5,-0.5 66.5,-0.5 72.5,-0.5C 89.0245,2.59634 102.691,10.5963 113.5,23.5C 110.167,25.8333 106.833,28.1667 103.5,30.5C 103.167,30.5 102.833,30.5 102.5,30.5C 102.5,29.8333 102.167,29.5 101.5,29.5C 100.5,27.8333 99.1667,26.5 97.5,25.5C 97.5,24.8333 97.1667,24.5 96.5,24.5C 96.5,23.8333 96.1667,23.5 95.5,23.5C 90.9494,20.0571 85.9494,17.3905 80.5,15.5C 80.5,14.8333 80.1667,14.5 79.5,14.5C 78.5,14.5 77.5,14.5 76.5,14.5C 76.5,13.8333 76.1667,13.5 75.5,13.5C 74.8333,13.5 74.1667,13.5 73.5,13.5C 53.9816,10.2274 37.6482,15.8941 24.5,30.5C 23.8333,30.5 23.5,30.8333 23.5,31.5C 22.8333,31.5 22.5,31.8333 22.5,32.5C 22.1667,33.1667 21.8333,33.8333 21.5,34.5C 20.8333,34.5 20.5,34.8333 20.5,35.5C 17.6658,40.1682 15.6658,45.1682 14.5,50.5C 13.8333,50.5 13.5,50.8333 13.5,51.5C 13.5,52.5 13.5,53.5 13.5,54.5C 12.8333,54.5 12.5,54.8333 12.5,55.5C 12.5,57.8333 12.5,60.1667 12.5,62.5C 8.16667,62.5 3.83333,62.5 -0.5,62.5C -0.5,59.8333 -0.5,57.1667 -0.5,54.5C 6.16667,24.5 24.5,6.16667 54.5,-0.5 Z"/></g>
<g><path style="opacity:1" fill="#76c868" d="M 73.5,13.5 C 74.1667,13.5 74.8333,13.5 75.5,13.5C 76.1667,13.5 76.5,13.8333 76.5,14.5C 77.5,14.5 78.5,14.5 79.5,14.5C 80.1667,14.5 80.5,14.8333 80.5,15.5C 85.9494,17.3905 90.9494,20.0571 95.5,23.5C 96.1667,23.5 96.5,23.8333 96.5,24.5C 97.1667,24.5 97.5,24.8333 97.5,25.5C 99.1667,26.5 100.5,27.8333 101.5,29.5C 102.167,29.5 102.5,29.8333 102.5,30.5C 102.5,31.1667 102.833,31.5 103.5,31.5C 113.069,44.0108 116.402,58.0108 113.5,73.5C 109.5,72.5 105.5,71.5 101.5,70.5C 101.74,64.773 101.407,59.1064 100.5,53.5C 99.7659,52.2921 99.4326,50.9587 99.5,49.5C 99.5,48.8333 99.1667,48.5 98.5,48.5C 98.5,48.1667 98.5,47.8333 98.5,47.5C 98.5,46.8333 98.1667,46.5 97.5,46.5C 91.7453,35.4211 82.7453,28.4211 70.5,25.5C 71.5,21.5 72.5,17.5 73.5,13.5 Z"/></g>
<g><path style="opacity:1" fill="#9ad68f" d="M 113.5,23.5 C 120.495,32.8352 125.162,43.1685 127.5,54.5C 127.5,60.5 127.5,66.5 127.5,72.5C 124.495,88.5091 116.829,101.842 104.5,112.5C 103.761,112.631 103.094,112.464 102.5,112C 100.302,108.977 97.969,106.144 95.5,103.5C 105.046,95.7587 111.046,85.7587 113.5,73.5C 116.402,58.0108 113.069,44.0108 103.5,31.5C 103.5,31.1667 103.5,30.8333 103.5,30.5C 106.833,28.1667 110.167,25.8333 113.5,23.5 Z"/></g>
<g><path style="opacity:0.251" fill="#fefffe" d="M 70.5,25.5 C 82.7453,28.4211 91.7453,35.4211 97.5,46.5C 98.1667,46.5 98.5,46.8333 98.5,47.5C 98.5,47.8333 98.5,48.1667 98.5,48.5C 99.1667,48.5 99.5,48.8333 99.5,49.5C 99.4326,50.9587 99.7659,52.2921 100.5,53.5C 96.3811,54.0966 92.3811,55.0966 88.5,56.5C 86.8378,51.8456 84.1711,47.8456 80.5,44.5C 80.5,43.8333 80.1667,43.5 79.5,43.5C 74.4381,39.923 68.7715,37.923 62.5,37.5C 61.8333,37.5 61.5,37.8333 61.5,38.5C 55.1428,38.6825 49.8094,41.0159 45.5,45.5C 44.8333,45.5 44.5,45.8333 44.5,46.5C 43.8333,46.5 43.5,46.8333 43.5,47.5C 40.4626,51.275 38.7959,55.6083 38.5,60.5C 37.8333,60.5 37.5,60.8333 37.5,61.5C 37.5,62.5 37.5,63.5 37.5,64.5C 37.5,65.1667 37.8333,65.5 38.5,65.5C 38.5751,68.2062 38.9084,70.8728 39.5,73.5C 35.7251,74.555 32.0584,75.8883 28.5,77.5C 27.0735,75.8516 26.2401,73.8516 26,71.5C 23.8408,58.803 26.6741,47.4697 34.5,37.5C 44.5092,27.8428 56.5092,23.8428 70.5,25.5 Z"/></g>
<g><path style="opacity:1" fill="#76c868" d="M 24.5,30.5 C 27.8153,32.8081 31.1486,35.1414 34.5,37.5C 26.6741,47.4697 23.8408,58.803 26,71.5C 26.2401,73.8516 27.0735,75.8516 28.5,77.5C 30.2364,83.2412 33.2364,88.2412 37.5,92.5C 35.1414,95.8514 32.8081,99.1847 30.5,102.5C 28.8333,101.5 27.5,100.167 26.5,98.5C 26.5,97.8333 26.1667,97.5 25.5,97.5C 18.5433,90.2534 14.2099,81.5867 12.5,71.5C 13.8333,71.1667 13.8333,70.8333 12.5,70.5C 12.5,67.8333 12.5,65.1667 12.5,62.5C 12.5,60.1667 12.5,57.8333 12.5,55.5C 13.1667,55.5 13.5,55.1667 13.5,54.5C 13.5,53.5 13.5,52.5 13.5,51.5C 14.1667,51.5 14.5,51.1667 14.5,50.5C 15.6658,45.1682 17.6658,40.1682 20.5,35.5C 21.1667,35.5 21.5,35.1667 21.5,34.5C 21.8333,33.8333 22.1667,33.1667 22.5,32.5C 23.1667,32.5 23.5,32.1667 23.5,31.5C 24.1667,31.5 24.5,31.1667 24.5,30.5 Z"/></g>
<g><path style="opacity:1" fill="#75c867" d="M 62.5,37.5 C 68.7715,37.923 74.4381,39.923 79.5,43.5C 80.1667,43.5 80.5,43.8333 80.5,44.5C 84.1711,47.8456 86.8378,51.8456 88.5,56.5C 88.3444,59.0661 88.6777,61.5661 89.5,64C 89.0098,66.3461 88.3432,68.5128 87.5,70.5C 83.6806,68.8723 79.6806,67.539 75.5,66.5C 76.2054,56.0358 71.2054,50.8692 60.5,51C 49.7483,56.5055 48.0816,64.0055 55.5,73.5C 53.1667,76.8333 50.8333,80.1667 48.5,83.5C 46.629,83.1412 45.129,82.1412 44,80.5C 42.4758,78.1019 40.9758,75.7686 39.5,73.5C 38.9084,70.8728 38.5751,68.2062 38.5,65.5C 37.8333,65.5 37.5,65.1667 37.5,64.5C 37.5,63.5 37.5,62.5 37.5,61.5C 38.1667,61.5 38.5,61.1667 38.5,60.5C 38.7959,55.6083 40.4626,51.275 43.5,47.5C 44.1667,47.5 44.5,47.1667 44.5,46.5C 45.1667,46.5 45.5,46.1667 45.5,45.5C 49.8094,41.0159 55.1428,38.6825 61.5,38.5C 62.1667,38.5 62.5,38.1667 62.5,37.5 Z"/></g>
<g><path style="opacity:1" fill="#99d68e" d="M 75.5,66.5 C 71.4985,76.1591 64.8319,78.4925 55.5,73.5C 48.0816,64.0055 49.7483,56.5055 60.5,51C 71.2054,50.8692 76.2054,56.0358 75.5,66.5 Z"/></g>
<g><path style="opacity:1" fill="#99d68e" d="M 100.5,53.5 C 101.407,59.1064 101.74,64.773 101.5,70.5C 94.4592,93.7002 78.7926,103.867 54.5,101C 48.2487,99.2077 42.582,96.3744 37.5,92.5C 33.2364,88.2412 30.2364,83.2412 28.5,77.5C 32.0584,75.8883 35.7251,74.555 39.5,73.5C 40.9758,75.7686 42.4758,78.1019 44,80.5C 45.129,82.1412 46.629,83.1412 48.5,83.5C 57.7557,90.4327 67.4224,90.9327 77.5,85C 82.6822,81.3383 86.0155,76.505 87.5,70.5C 88.3432,68.5128 89.0098,66.3461 89.5,64C 88.6777,61.5661 88.3444,59.0661 88.5,56.5C 92.3811,55.0966 96.3811,54.0966 100.5,53.5 Z"/></g>
<g><path style="opacity:1" fill="#9bd690" d="M -0.5,62.5 C 3.83333,62.5 8.16667,62.5 12.5,62.5C 12.5,65.1667 12.5,67.8333 12.5,70.5C 12.5,70.8333 12.5,71.1667 12.5,71.5C 14.2099,81.5867 18.5433,90.2534 25.5,97.5C 26.1667,97.5 26.5,97.8333 26.5,98.5C 27.5,100.167 28.8333,101.5 30.5,102.5C 39.7024,110.236 50.369,114.236 62.5,114.5C 62.5,118.833 62.5,123.167 62.5,127.5C 59.8333,127.5 57.1667,127.5 54.5,127.5C 24.5,120.833 6.16667,102.5 -0.5,72.5C -0.5,69.1667 -0.5,65.8333 -0.5,62.5 Z"/></g>
<g><path style="opacity:0.251" fill="#fefffe" d="M 95.5,103.5 C 97.969,106.144 100.302,108.977 102.5,112C 103.094,112.464 103.761,112.631 104.5,112.5C 94.8072,120.397 83.8072,125.397 71.5,127.5C 68.5,127.5 65.5,127.5 62.5,127.5C 62.5,123.167 62.5,118.833 62.5,114.5C 74.8054,114.62 85.8054,110.954 95.5,103.5 Z"/></g>
</svg>
